<svg width="88" height="76" viewBox="0 0 88 76" fill="none" xmlns="http://www.w3.org/2000/svg">
    <path d="M22.8156 72.1731L22.0502 74.0209H22.0502L22.8156 72.1731ZM8 38L9.41421 36.5858L8 35.1716L6.58579 36.5858L8 38ZM9.82689 59.1844L7.97913 59.9498L9.82689 59.1844ZM65.1844 72.1731L65.9498 74.0209L65.1844 72.1731ZM80.0209 59.9498C80.4436 58.9293 79.959 57.7593 78.9385 57.3366C77.918 56.9139 76.7481 57.3985 76.3253 58.419L80.0209 59.9498ZM65.1844 3.82689L65.9498 1.97913V1.97913L65.1844 3.82689ZM80 38L78.5858 39.4142L80 40.8284L81.4142 39.4142L80 38ZM78.1731 16.8156L80.0209 16.0502L78.1731 16.8156ZM22.8156 3.82689L22.0502 1.97913V1.97913L22.8156 3.82689ZM7.97913 16.0502C7.55643 17.0707 8.04104 18.2407 9.06152 18.6634C10.082 19.0861 11.252 18.6015 11.6747 17.581L7.97913 16.0502ZM87.4142 33.4142C88.1953 32.6332 88.1953 31.3668 87.4142 30.5858C86.6332 29.8047 85.3668 29.8047 84.5858 30.5858L87.4142 33.4142ZM75.4142 30.5858C74.6332 29.8047 73.3668 29.8047 72.5858 30.5858C71.8047 31.3668 71.8047 32.6332 72.5858 33.4142L75.4142 30.5858ZM0.585786 42.5858C-0.195262 43.3668 -0.195262 44.6332 0.585786 45.4142C1.36683 46.1953 2.63317 46.1953 3.41421 45.4142L0.585786 42.5858ZM12.5858 45.4142C13.3668 46.1953 14.6332 46.1953 15.4142 45.4142C16.1953 44.6332 16.1953 43.3668 15.4142 42.5858L12.5858 45.4142ZM44 72C38.3813 72 34.2675 71.9989 31.0044 71.7763C27.7593 71.5549 25.5019 71.121 23.581 70.3253L22.0502 74.0209C24.5398 75.0521 27.2833 75.5317 30.7321 75.767C34.163 76.0011 38.4361 76 44 76V72ZM6 38C6 43.5639 5.99892 47.837 6.233 51.2679C6.46831 54.7167 6.94792 57.4602 7.97913 59.9498L11.6747 58.419C10.879 56.4981 10.4451 54.2407 10.2237 50.9956C10.0011 47.7325 10 43.6187 10 38H6ZM23.581 70.3253C18.1903 68.0925 13.9075 63.8097 11.6747 58.419L7.97913 59.9498C10.618 66.3205 15.6795 71.382 22.0502 74.0209L23.581 70.3253ZM44 76C49.5639 76 53.8371 76.0011 57.2679 75.767C60.7167 75.5317 63.4602 75.0521 65.9498 74.0209L64.419 70.3253C62.4981 71.121 60.2407 71.5549 56.9956 71.7763C53.7325 71.9989 49.6187 72 44 72V76ZM76.3253 58.419C74.0925 63.8097 69.8097 68.0925 64.419 70.3253L65.9498 74.0209C72.3205 71.382 77.382 66.3205 80.0209 59.9498L76.3253 58.419ZM44 4C49.6187 4 53.7325 4.00108 56.9956 4.22372C60.2407 4.44514 62.4981 4.87897 64.419 5.67465L65.9498 1.97913C63.4602 0.94792 60.7167 0.46831 57.2679 0.233001C53.8371 -0.00108314 49.5639 0 44 0V4ZM82 38C82 32.4361 82.0011 28.163 81.767 24.7321C81.5317 21.2833 81.0521 18.5398 80.0209 16.0502L76.3253 17.581C77.121 19.5019 77.5549 21.7593 77.7763 25.0044C77.9989 28.2675 78 32.3813 78 38H82ZM64.419 5.67465C69.8097 7.90752 74.0925 12.1903 76.3253 17.581L80.0209 16.0502C77.382 9.6795 72.3205 4.61797 65.9498 1.97913L64.419 5.67465ZM44 0C38.4361 0 34.163 -0.00108314 30.7321 0.233001C27.2833 0.46831 24.5398 0.94792 22.0502 1.97913L23.581 5.67465C25.5019 4.87897 27.7593 4.44514 31.0044 4.22372C34.2675 4.00108 38.3813 4 44 4V0ZM22.0502 1.97913C15.6795 4.61797 10.618 9.6795 7.97913 16.0502L11.6747 17.581C13.9075 12.1903 18.1903 7.90752 23.581 5.67465L22.0502 1.97913ZM81.4142 39.4142L87.4142 33.4142L84.5858 30.5858L78.5858 36.5858L81.4142 39.4142ZM81.4142 36.5858L75.4142 30.5858L72.5858 33.4142L78.5858 39.4142L81.4142 36.5858ZM6.58579 36.5858L0.585786 42.5858L3.41421 45.4142L9.41421 39.4142L6.58579 36.5858ZM6.58579 39.4142L12.5858 45.4142L15.4142 42.5858L9.41421 36.5858L6.58579 39.4142ZM36.5 16H51.5V12H36.5V16ZM55.5 20V56H59.5V20H55.5ZM51.5 60H36.5V64H51.5V60ZM32.5 56V20H28.5V56H32.5ZM36.5 60C34.2909 60 32.5 58.2091 32.5 56H28.5C28.5 60.4183 32.0817 64 36.5 64V60ZM55.5 56C55.5 58.2091 53.7091 60 51.5 60V64C55.9183 64 59.5 60.4183 59.5 56H55.5ZM51.5 16C53.7091 16 55.5 17.7909 55.5 20H59.5C59.5 15.5817 55.9183 12 51.5 12V16ZM36.5 12C32.0817 12 28.5 15.5817 28.5 20H32.5C32.5 17.7909 34.2909 16 36.5 16V12ZM42.5 16H45.5V12H42.5V16ZM45.5 18H42.5V22H45.5V18ZM42.5 18C41.9477 18 41.5 17.5523 41.5 17H37.5C37.5 19.7614 39.7386 22 42.5 22V18ZM46.5 17C46.5 17.5523 46.0523 18 45.5 18V22C48.2614 22 50.5 19.7614 50.5 17H46.5ZM45.5 16C46.0523 16 46.5 16.4477 46.5 17H50.5C50.5 14.2386 48.2614 12 45.5 12V16ZM42.5 12C39.7386 12 37.5 14.2386 37.5 17H41.5C41.5 16.4477 41.9477 16 42.5 16V12Z" fill="#DD0046"/>
</svg>